<svg height="22" width="22" xmlns="http://www.w3.org/2000/svg"><path d="M22 12.75c-.01-.72-.32-1.41-.85-1.89.36-.49.52-1.1.46-1.71A2.635 2.635 0 0019 6.83h-3.94l.24-1.89c.34-2.37-1.3-4.56-3.66-4.9-.22-.03-.44-.04-.65-.04-.47 0-.91.19-1.24.52-.34.32-.52.76-.52 1.22v2.5c0 1.09-.31 2.16-.88 3.08L7.28 9.03c-.14.24-.35.43-.6.55-.21-.68-.84-1.15-1.55-1.16H1.64c-.9 0-1.64.73-1.64 1.64v10.29C0 21.26.72 22 1.63 22h3.56c.9 0 1.63-.73 1.64-1.63v-.25c.81.72 1.86 1.13 2.94 1.13h7.71a2.7 2.7 0 001.88-.79c.48-.47.73-1.13.7-1.8 0-.24-.04-.48-.12-.7.84-.44 1.37-1.31 1.37-2.26 0-.33-.06-.67-.18-.98.54-.52.86-1.22.87-1.97zM5.28 20.32c0 .07-.06.12-.12.12H1.64c-.06 0-.12-.06-.12-.12V10.03c0-.07.06-.12.12-.12h3.55c.06 0 .12.06.12.12v10.28h-.03zm14.63-6.65c-.25.12-.43.34-.49.61s0 .55.18.76c.14.17.22.39.21.61-.01.5-.37.92-.85 1.01-.5.08-.84.55-.76 1.05.02.14.07.27.15.38.12.17.19.37.18.58 0 .26-.1.51-.27.7-.22.21-.51.34-.82.34h-7.7c-1.63 0-2.94-1.33-2.94-2.96v-5.62a2.96 2.96 0 001.82-1.31l1.06-1.71c.73-1.16 1.12-2.5 1.12-3.87v-2.5c0-.12.09-.21.2-.21h.01c1.32 0 2.46.91 2.76 2.2.07.33.08.67.03 1.01l-.27 2.14c-.05.37.06.75.3 1.04.25.28.6.45.97.46H19c.53.01.99.39 1.09.92.02.37-.15.73-.46.95-.28.19-.43.52-.39.86.03.34.26.63.58.73.39.15.64.53.64.95.02.35-.2.72-.55.88z" fill="#fff"/></svg>