<svg xmlns="http://www.w3.org/2000/svg" viewBox="0 0 200 40"><path fill="#32d096" d="M23.08 6.88V0H0v33.1h6.89V6.88h16.19z"/><path fill="#32d096" d="M23.08 6.88V33.1H6.89v6.88h23.09V6.88h-6.9z"/><path d="M38.08 0h4.41v14.07h8v3.72H38.08zm13.8 0h4.41v17.79h-4.41zm10.93 3.75h-5.18V0h14.82v3.75h-5.23v14h-4.41zM73.8 0h13.5v3.65h-9.09v3.18H86v3.43h-7.79v3.81h9.24v3.72H73.8zm15.34 0h8.52c3.53 0 6.22 1.82 6.22 5.12a4.26 4.26 0 01-3.08 4.3v.08a3.56 3.56 0 012.59 3.25c.37 2.34.12 4.58.74 4.8v.22h-4.28c-.47-.27-.4-2.36-.67-4.12a2.62 2.62 0 00-3-2.54h-2.63v6.66h-4.41zm7.72 7.86c1.74 0 2.64-.82 2.64-2.17S98.65 3.5 97 3.5h-3.45v4.38zM111 0h4.53l6.43 17.77h-4.64l-1-3.2H110l-1 3.2h-4.43zm4.26 11.41l-1.35-4.3c-.3-.92-.7-2.51-.7-2.51s-.43 1.59-.73 2.51L111 11.43zM125 3.75h-5.18V0h14.81v3.75h-5.23v14H125zm10.87 7.78V0h4.4v11.68c0 1.74.9 2.91 3.07 2.91a2.74 2.74 0 003-3V0h4.41v11.53c0 4.1-2.47 6.59-7.42 6.59s-7.46-2.44-7.46-6.59zm16.78 0V0h4.41v11.68c0 1.74.9 2.91 3.06 2.91a2.75 2.75 0 003-3V0h4.41v11.53c0 4.1-2.47 6.59-7.43 6.59s-7.45-2.44-7.45-6.59zM169.56 0h8.52c3.54 0 6.23 1.82 6.23 5.12a4.26 4.26 0 01-3.09 4.3v.08a3.56 3.56 0 012.59 3.25c.37 2.34.13 4.58.75 4.8v.22h-4.29c-.47-.27-.39-2.36-.67-4.12a2.61 2.61 0 00-3-2.54H174v6.66h-4.41zm7.73 7.86c1.74 0 2.64-.82 2.64-2.17s-.85-2.21-2.54-2.21H174v4.4zM36.81 22.23h4.58l2.79 9.32c.4 1.34.82 3.13.82 3.13s.45-1.81.83-3.13l2.76-9.32h4.51L47.25 40h-4.56zm17.19 0h4.4v14h8V40H54zm19.17 0h4.54L84.13 40H79.5l-1-3.21h-6.27l-1 3.21h-4.46zm4.26 11.41l-1.34-4.3c-.3-.92-.7-2.52-.7-2.52s-.42 1.6-.72 2.52l-1.37 4.3zm13.68-11.41h4.53L102.07 40h-4.64l-1-3.21h-6.27l-1 3.21h-4.45zm4.26 11.41L94 29.34c-.3-.92-.7-2.52-.7-2.52s-.42 1.6-.72 2.52l-1.37 4.3zM103 22.23h4.44l5.28 8.92 1.28 2.26V22.23h4.31V40h-4.44l-5.23-8.8c-.3-.47-1.27-2.39-1.27-2.39V40H103zm17.4 0h7.6c4.94 0 8.25 3.55 8.25 9 0 3.14-1.1 5.65-3.09 7.16a8.76 8.76 0 01-5.44 1.61h-7.32zm7 14.07c2.89 0 4.38-1.82 4.38-5.08s-1.57-5.31-4.33-5.31h-2.64V36.3zm10.26-14.07h13.5v3.63h-9.09V29h7.79v3.43h-7.79v3.8h9.24V40h-13.65zm15.34 0h8.52c3.54 0 6.23 1.81 6.23 5.12a4.27 4.27 0 01-3.09 4.3v.07a3.57 3.57 0 012.59 3.28c.37 2.34.12 4.57.74 4.8v.2h-4.28c-.47-.27-.4-2.36-.67-4.13a2.61 2.61 0 00-3-2.53h-2.66V40H153zm7.72 7.85c1.75 0 2.64-.82 2.64-2.16s-.84-2.21-2.54-2.21h-3.41v4.37zm8.69-7.85h13.5v3.63h-9.09V29h7.8v3.43h-7.8v3.8h9.24V40h-13.65zm15.35 0h4.43l5.28 8.92c.28.5 1.22 2.26 1.22 2.26h.05s-.05-2.14-.05-2.76v-8.42H200V40h-4.43l-5.23-8.8c-.3-.47-1.27-2.39-1.27-2.39V40h-4.31z" fill="#231f20"/></svg>