<?xml version="1.0" standalone="no"?>
<!DOCTYPE svg PUBLIC "-//W3C//DTD SVG 20010904//EN"
 "http://www.w3.org/TR/2001/REC-SVG-20010904/DTD/svg10.dtd">
<svg version="1.0" xmlns="http://www.w3.org/2000/svg"
 width="800.000000pt" height="800.000000pt" viewBox="0 0 800.000000 800.000000"
 preserveAspectRatio="xMidYMid meet">
<metadata>
Created by potrace 1.11, written by Peter Selinger 2001-2013
</metadata>
<g transform="translate(0.000000,800.000000) scale(0.100000,-0.100000)"
fill="#000000" stroke="none">
<path d="M2930 7978 c-4 -184 0 -2620 3 -2625 4 -6 239 -9 292 -4 7 1 10 312
10 920 0 506 2 917 4 915 3 -3 6 -15 8 -27 3 -26 19 -125 29 -182 4 -22 8 -51
10 -65 2 -14 5 -36 8 -50 3 -13 8 -40 11 -60 3 -20 7 -45 9 -57 7 -35 17 -96
22 -133 2 -19 6 -46 9 -60 2 -14 7 -38 9 -55 3 -16 12 -70 20 -120 9 -49 18
-108 21 -130 7 -44 8 -48 31 -180 8 -49 17 -101 19 -115 2 -14 9 -56 15 -95 7
-38 13 -81 15 -95 2 -14 8 -47 13 -75 5 -27 10 -57 10 -65 0 -8 3 -26 6 -40 4
-14 9 -41 11 -60 3 -19 8 -51 11 -70 3 -19 7 -48 9 -64 2 -15 6 -31 10 -34 3
-3 37 -6 76 -7 80 0 82 2 93 76 8 52 14 93 21 129 3 14 7 43 11 65 3 22 7 47
9 55 3 8 7 33 10 55 3 22 7 49 9 60 2 11 7 40 11 65 10 68 14 92 20 120 2 13
7 42 10 65 9 57 16 105 20 124 1 9 6 36 10 61 4 25 9 54 11 65 3 11 7 40 10
65 8 61 12 85 14 85 1 0 3 16 6 35 2 19 8 58 14 85 5 28 12 66 14 85 3 19 8
46 11 60 2 14 7 41 9 60 3 19 8 51 11 70 4 19 13 73 21 120 8 47 17 108 21
135 3 28 9 59 14 70 4 11 8 -1066 8 -2392 1 -1923 4 -2413 14 -2414 6 -1 83
-1 170 -1 153 0 157 -1 158 -22 0 -11 1 -528 1 -1149 0 -653 4 -1130 10 -1133
11 -7 345 -7 357 0 4 3 5 25 2 48 -4 24 -4 62 -1 86 4 23 4 44 2 47 -5 5 -6
73 -2 175 1 30 1 60 0 65 -1 6 -1 37 -1 70 1 33 1 71 0 85 0 14 -1 32 0 40 0
8 0 40 0 70 0 87 0 170 1 230 1 30 1 60 0 65 -2 10 -1 130 1 143 1 4 1 12 0
17 -1 6 -2 73 -1 150 1 182 1 185 0 285 0 47 0 103 0 125 1 22 1 79 0 127 0
47 0 90 1 95 1 4 0 13 -1 18 -2 10 -1 128 1 143 1 4 0 9 -1 12 -2 5 -2 87 -1
161 l1 46 179 -1 179 -1 1 140 c1 77 1 147 2 155 1 54 3 54 -152 54 -90 1
-143 5 -143 11 1 6 5 33 8 60 4 28 9 57 11 65 2 8 6 32 9 53 14 89 18 113 22
137 2 14 7 41 10 60 3 19 7 42 9 50 2 8 7 35 10 60 5 42 15 102 31 190 3 19 8
47 10 63 2 15 6 42 9 60 3 17 8 48 11 67 2 19 7 42 9 50 3 8 7 33 10 55 3 22
7 51 10 65 3 14 8 43 10 65 5 38 18 117 30 180 3 17 8 46 10 65 3 19 10 60 15
90 5 30 11 69 14 85 15 100 21 136 31 185 2 14 7 41 10 60 3 19 8 36 11 39 2
2 4 -406 4 -907 l0 -911 158 2 157 2 1 1498 c1 1361 -1 1497 -15 1498 -9 0
-128 2 -266 3 -137 2 -255 3 -261 4 -12 2 -15 854 -3 862 4 3 85 5 181 4 l174
0 0 173 0 173 -181 0 -181 0 0 368 c0 202 3 369 7 372 4 3 120 5 258 4 169 0
251 3 254 10 1 6 3 83 2 171 l0 160 -445 0 -444 0 0 -1313 c-1 -722 1 -1318 4
-1325 4 -9 64 -12 235 -12 l230 0 1 -25 c0 -14 -3 -38 -7 -55 -4 -16 -10 -47
-14 -69 -3 -21 -7 -42 -10 -46 -3 -4 -7 -23 -9 -42 -3 -18 -7 -45 -10 -58 -3
-14 -8 -36 -10 -50 -2 -14 -7 -36 -10 -50 -3 -14 -8 -36 -10 -50 -2 -14 -14
-70 -25 -126 -12 -55 -24 -114 -26 -130 -2 -16 -20 -105 -38 -199 -19 -93 -45
-223 -57 -288 -13 -65 -24 -116 -26 -114 -2 2 -17 73 -34 158 -77 383 -113
565 -115 579 -2 15 -15 83 -21 110 -7 32 -43 216 -48 243 -2 15 -7 35 -10 45
-3 9 -8 34 -10 54 -3 20 -10 55 -16 77 l-10 40 -51 -3 c-27 -1 -53 3 -57 8 -5
6 -8 604 -7 1329 l0 1317 -221 0 -221 0 -18 -87 c-9 -48 -18 -96 -19 -108 -1
-11 -6 -26 -10 -33 -4 -7 -5 -12 -2 -12 2 0 -2 -27 -10 -60 -7 -32 -16 -74
-19 -92 -3 -18 -21 -112 -40 -208 -19 -96 -37 -187 -40 -202 -3 -16 -7 -40
-10 -55 -3 -16 -8 -37 -10 -48 -2 -11 -15 -76 -29 -145 -14 -69 -28 -138 -31
-155 -3 -16 -8 -37 -10 -45 -2 -8 -4 -26 -5 -40 -1 -24 -2 -24 -10 -4 -4 12
-11 36 -14 55 -10 60 -17 94 -21 109 -3 8 -7 33 -10 55 -4 22 -9 49 -12 60 -4
11 -7 27 -8 35 -1 8 -7 40 -13 70 -6 30 -14 69 -17 85 -2 17 -14 75 -25 130
-11 55 -23 112 -25 126 -3 14 -18 93 -34 175 -17 82 -32 160 -35 174 -2 14
-10 50 -16 80 -6 30 -14 69 -16 85 -3 17 -7 36 -9 43 -3 9 -56 12 -220 12
l-215 0 0 -22z m1401 -3485 c1 -19 2 -27 19 -128 16 -97 34 -204 45 -277 2
-13 7 -39 10 -58 3 -19 17 -100 30 -180 13 -80 26 -158 29 -175 2 -16 7 -46
10 -65 3 -19 8 -48 12 -65 3 -16 7 -43 9 -60 3 -30 13 -90 21 -129 2 -11 6
-39 9 -61 3 -22 7 -51 10 -65 3 -14 8 -41 11 -60 3 -19 7 -46 10 -60 3 -14 7
-41 10 -60 4 -32 29 -180 40 -240 2 -14 7 -46 10 -71 l6 -46 -145 1 c-80 1
-149 4 -153 9 -10 10 -11 1527 -1 1527 5 0 5 5 1 12 -10 16 -11 268 -1 268 4
0 7 -8 8 -17z"/>
<path d="M5697 5302 c-14 -3 -16 -24 -17 -160 -2 -153 -1 -180 3 -290 1 -28
-2 -52 -6 -52 -5 0 -5 -5 -2 -10 4 -6 6 -109 5 -228 -2 -210 -1 -236 3 -350 1
-28 -2 -52 -6 -52 -5 0 -5 -5 -2 -10 4 -6 6 -109 5 -228 -2 -210 -1 -236 3
-350 1 -28 -2 -52 -6 -52 -5 0 -5 -5 -2 -10 4 -6 6 -109 5 -228 -1 -248 -1
-221 0 -415 1 -82 0 -150 -2 -152 -2 -1 -22 -5 -46 -9 -117 -16 -213 -61 -294
-140 -76 -73 -99 -113 -126 -215 -19 -68 -20 -116 -20 -974 0 -995 1 -1007 61
-1120 32 -62 112 -142 180 -181 219 -127 507 -85 680 99 68 72 103 161 114
285 9 106 8 1744 -1 1810 -5 30 -9 64 -11 75 -16 109 -120 242 -237 302 l-43
22 333 1 332 0 -2 173 -3 172 -272 0 -273 -1 -1 26 c0 39 -1 718 0 781 l1 57
163 0 c89 0 170 0 180 1 15 1 17 16 17 171 0 155 -2 170 -17 171 -10 0 -91 0
-180 0 -162 -1 -163 -1 -164 22 0 36 -1 680 0 699 1 15 21 17 210 16 114 -1
212 2 218 5 5 3 14 2 21 -2 7 -4 26 -6 42 -3 l29 4 -2 171 -2 170 -426 1
c-234 1 -433 0 -442 -2z m82 -2948 c31 -12 45 -26 63 -62 l23 -47 0 -890 c0
-868 -1 -891 -20 -929 -35 -68 -69 -84 -176 -78 -39 3 -85 51 -99 103 -9 32
-12 269 -12 899 1 470 3 866 6 879 3 13 10 39 16 57 23 70 116 102 199 68z"/>
<path d="M2079 4968 c0 -2 -2 -34 -3 -73 -2 -38 -6 -139 -11 -222 -5 -109 -4
-153 4 -153 6 0 11 3 12 8 6 47 10 121 12 239 1 78 4 139 6 137 3 -3 17 -53
33 -112 52 -204 67 -255 76 -264 9 -9 20 27 81 269 15 56 28 104 31 106 3 3 6
-36 7 -86 4 -226 8 -287 20 -291 17 -7 21 3 18 49 -4 58 -18 304 -19 343 -2
39 -31 64 -40 35 -21 -67 -86 -329 -86 -346 0 -11 -2 -18 -4 -16 -5 4 -49 162
-83 297 -10 39 -24 67 -35 73 -10 5 -18 8 -19 7z"/>
<path d="M3465 4888 c-2 -7 -5 -22 -7 -33 -2 -12 -11 -19 -21 -19 -9 1 -17 -4
-17 -12 0 -8 9 -14 19 -14 14 0 20 -9 23 -36 2 -19 1 -37 -3 -40 -4 -2 -3 -20
1 -39 4 -19 5 -37 1 -40 -12 -7 6 -117 21 -126 21 -13 60 -11 56 4 -3 6 -10
12 -17 12 -28 0 -36 33 -34 141 1 60 2 112 2 116 1 4 13 8 28 10 39 4 40 25 1
24 -31 -1 -33 1 -30 32 3 31 -14 46 -23 20z"/>
<path d="M2456 4813 c-14 -15 -26 -32 -27 -38 0 -5 -3 -19 -5 -30 -20 -83 7
-193 52 -214 36 -16 79 -14 95 6 13 15 11 16 -21 10 -56 -11 -96 28 -104 100
-5 35 7 42 74 45 l65 3 -2 45 c-4 89 -75 130 -127 73z m89 -26 c4 -12 8 -33
10 -47 3 -24 1 -25 -52 -26 l-54 -2 5 36 c8 63 74 91 91 39z"/>
<path d="M2639 4808 c0 -18 0 -69 0 -113 2 -136 2 -143 -1 -155 -2 -7 5 -14
14 -15 15 -3 17 9 16 109 -1 151 14 193 65 181 36 -9 44 -38 42 -155 -1 -98 8
-150 23 -135 4 3 7 59 7 123 1 108 12 160 33 163 4 0 15 2 24 4 10 2 26 -7 36
-19 14 -19 17 -43 17 -149 0 -70 2 -127 6 -127 19 0 24 36 23 141 -2 140 -15
174 -70 177 -26 2 -40 -4 -59 -24 -19 -21 -25 -23 -25 -10 0 17 -37 36 -70 36
-11 0 -29 -10 -40 -22 -12 -13 -21 -18 -20 -13 4 20 0 35 -10 35 -5 0 -10 -15
-11 -32z"/>
<path d="M3052 4833 c-14 -6 -41 -54 -48 -86 -28 -136 28 -240 119 -223 48 9
50 31 2 23 -48 -8 -82 23 -93 83 -5 25 -7 50 -5 55 2 6 33 9 73 7 68 -4 70 -3
70 20 0 90 -55 146 -118 121z m56 -30 c12 -10 24 -34 27 -54 l7 -35 -49 1
c-26 1 -52 3 -57 4 -13 2 2 62 21 83 20 22 26 22 51 1z"/>
<path d="M3218 4798 c2 -24 3 -50 3 -58 -1 -8 -1 -35 0 -60 1 -25 1 -52 0 -60
-2 -30 0 -95 4 -98 15 -15 22 22 24 115 2 153 5 164 48 177 16 5 27 1 40 -14
15 -17 18 -40 19 -138 0 -112 6 -148 23 -138 5 4 7 211 2 264 -4 39 -81 68
-108 41 -8 -8 -17 -8 -31 0 -29 15 -28 16 -24 -31z"/>
<path d="M3628 4833 c-39 -10 -62 -74 -60 -167 4 -109 53 -165 120 -137 41 17
60 69 58 163 -1 65 -5 79 -29 111 -27 36 -45 42 -89 30z m55 -28 c26 -25 38
-81 34 -147 -6 -74 -12 -94 -35 -104 -31 -13 -41 -12 -55 4 -29 34 -36 81 -28
195 1 19 44 67 60 67 5 0 16 -7 24 -15z"/>
<path d="M2615 4288 c-26 -20 -48 -80 -38 -104 4 -10 -2 -17 -16 -21 -11 -3
-21 -11 -21 -19 0 -7 6 -11 14 -8 20 8 22 -8 21 -153 0 -102 2 -133 12 -133
15 0 15 -8 17 155 1 96 4 130 14 131 6 1 21 2 33 3 31 2 12 21 -21 21 -27 0
-28 2 -25 39 4 54 22 84 45 78 11 -3 24 1 30 8 18 22 -37 25 -65 3z"/>
<path d="M2470 4221 l0 -82 -30 16 c-79 41 -145 -78 -116 -210 4 -16 8 -35 9
-41 12 -53 82 -79 117 -44 17 17 21 18 26 5 17 -42 21 4 20 207 -1 167 -4 222
-13 226 -10 3 -13 -17 -13 -77z m-34 -89 c22 -14 31 -48 33 -118 3 -96 -16
-144 -57 -144 -24 0 -33 7 -46 35 -19 40 -23 153 -7 184 7 12 8 21 4 21 -4 0
2 7 13 15 21 16 43 19 60 7z"/>
<path d="M3700 4076 c0 -199 7 -265 23 -223 2 7 5 110 5 230 0 180 -2 217 -14
217 -12 0 -14 -39 -14 -224z"/>
<path d="M3204 4262 c-11 -8 -12 -36 -1 -39 18 -7 27 -1 27 16 0 23 -12 33
-26 23z"/>
<path d="M3077 4213 c-4 -3 -7 -15 -7 -26 0 -10 -9 -21 -20 -24 -11 -3 -20 -9
-20 -14 0 -5 9 -9 20 -9 19 0 20 -7 20 -128 0 -87 4 -134 13 -145 16 -23 67
-33 67 -13 0 8 -10 16 -22 18 -25 3 -40 43 -26 70 4 9 5 19 1 21 -5 3 -7 43
-5 90 3 84 4 85 28 82 27 -3 43 13 25 25 -7 4 -23 5 -35 3 -20 -4 -22 -2 -18
26 4 29 -6 40 -21 24z"/>
<path d="M1810 4159 c-82 -30 -84 -271 -3 -308 49 -22 94 9 113 79 25 93 -1
204 -55 228 -14 7 -27 12 -28 11 -1 0 -13 -5 -27 -10z m73 -59 c14 -28 17 -52
14 -114 -3 -71 -7 -82 -31 -103 -38 -32 -65 -17 -83 47 -11 37 -3 151 12 180
23 44 63 39 88 -10z"/>
<path d="M2040 4159 c-44 -16 -64 -64 -65 -154 0 -92 15 -133 60 -154 25 -12
32 -12 54 0 82 45 88 248 9 303 -25 18 -24 18 -58 5z m48 -28 c31 -19 45 -118
29 -204 -5 -27 -34 -57 -55 -57 -41 0 -56 35 -57 129 0 115 31 165 83 132z"/>
<path d="M2263 4148 c-18 -20 -34 -24 -30 -7 1 6 -4 14 -10 16 -10 4 -13 -32
-13 -157 0 -136 2 -161 14 -151 10 8 13 39 13 114 0 115 11 153 48 167 27 10
34 37 10 37 -8 0 -22 -9 -32 -19z"/>
<path d="M2734 4158 c-70 -33 -84 -229 -21 -293 23 -22 122 -25 115 -3 -3 8
-19 12 -42 10 -28 -3 -42 2 -56 18 -20 23 -37 101 -26 119 4 5 36 9 72 7 l66
-2 -5 54 c-8 76 -52 115 -103 90z m60 -43 c9 -13 16 -36 16 -50 0 -24 -3 -25
-55 -25 l-55 0 5 32 c12 65 59 88 89 43z"/>
<path d="M2919 4155 c-24 -13 -47 -50 -43 -70 5 -25 17 -55 23 -55 3 0 23 -16
44 -35 63 -57 45 -134 -28 -122 -19 3 -37 1 -40 -4 -8 -11 36 -29 61 -24 11 2
22 4 26 4 19 2 48 48 48 75 -1 40 -15 64 -67 110 -29 26 -40 43 -38 58 7 37
26 50 62 43 33 -6 45 6 21 22 -22 13 -42 12 -69 -2z"/>
<path d="M3516 4158 c-23 -13 -20 -31 5 -23 36 12 65 -2 76 -37 11 -39 7 -58
-14 -58 -8 0 -31 -7 -50 -17 -34 -16 -52 -44 -58 -93 -3 -29 20 -79 38 -81 6
-1 22 -3 35 -4 14 -1 29 6 37 19 13 18 20 16 16 -6 0 -5 6 -8 15 -8 13 0 15
18 13 128 0 70 -6 136 -12 147 -18 36 -67 52 -101 33z m83 -156 c0 -9 2 -29 4
-44 6 -39 -26 -88 -57 -88 -14 0 -27 4 -30 8 -12 20 -14 66 -4 86 23 45 87 73
87 38z"/>
<path d="M1407 4153 c-8 -13 67 -302 80 -307 8 -3 23 40 44 131 l33 136 18
-79 c10 -43 23 -103 29 -131 7 -32 17 -53 25 -53 8 0 14 2 14 5 0 3 9 38 19
78 11 39 22 83 25 97 3 14 10 43 15 65 14 53 13 65 -2 65 -8 0 -18 -22 -25
-57 -6 -32 -14 -69 -17 -83 -10 -48 -17 -85 -18 -97 -1 -27 -15 -11 -22 25 -5
20 -9 42 -11 47 -1 6 -5 21 -8 35 -27 125 -48 158 -62 98 -4 -18 -9 -36 -10
-40 -1 -5 -2 -9 -4 -10 -2 -4 -6 -19 -21 -100 -13 -63 -28 -91 -28 -50 0 9 -7
44 -16 77 -9 33 -17 67 -19 75 -14 72 -26 95 -39 73z"/>
<path d="M3199 4138 c-1 -27 -1 -257 0 -276 1 -8 7 -12 14 -10 18 7 18 308 0
308 -7 0 -13 -10 -14 -22z"/>
<path d="M3274 4138 c8 -26 44 -162 51 -193 3 -11 8 -33 12 -50 4 -16 6 -33 5
-37 -1 -5 6 -8 16 -8 14 0 24 26 51 138 19 75 38 145 43 155 6 12 5 17 -7 17
-20 0 -23 -9 -55 -149 -15 -63 -30 -109 -34 -103 -4 7 -5 12 -3 12 3 0 1 17
-4 38 -5 20 -12 48 -15 62 -3 14 -8 34 -11 45 -4 11 -7 22 -8 25 -11 53 -19
70 -32 70 -11 0 -14 -6 -9 -22z"/>
<path d="M3604 3395 c0 -177 3 -225 13 -225 9 0 13 19 14 63 1 34 1 65 1 69
-1 3 4 11 11 16 9 8 22 -9 52 -69 21 -43 45 -79 52 -79 19 0 17 7 -32 99 l-44
85 31 50 c17 28 36 54 42 58 8 5 8 10 -1 19 -9 9 -23 -6 -62 -67 l-51 -79 0
143 c0 112 -3 142 -13 142 -11 0 -14 -43 -13 -225z"/>
<path d="M2531 3391 c0 -137 4 -221 10 -221 12 0 29 42 21 54 -11 19 -3 137
12 157 l14 21 7 -24 c4 -12 15 -31 24 -42 9 -10 15 -21 14 -25 -5 -14 61 -141
74 -141 15 0 13 8 -57 159 l-44 93 29 54 c16 30 33 54 37 54 4 0 8 5 8 11 0 6
9 24 21 40 19 27 19 29 2 29 -12 0 -37 -33 -78 -104 -42 -72 -62 -99 -66 -87
-4 9 -3 21 2 27 5 6 6 14 3 17 -4 3 -7 36 -8 73 -1 42 -5 69 -13 71 -9 3 -12
-51 -12 -216z"/>
<path d="M3401 3571 c-8 -15 -7 -20 6 -25 21 -8 35 6 27 27 -8 22 -21 21 -33
-2z"/>
<path d="M3503 3574 c-9 -23 13 -40 32 -24 12 10 13 16 4 26 -15 18 -28 18
-36 -2z"/>
<path d="M3147 3543 c-4 -3 -7 -19 -7 -34 0 -20 -4 -27 -14 -23 -7 3 -16 -2
-19 -10 -5 -11 0 -16 13 -16 19 0 20 -7 20 -123 0 -95 4 -128 16 -145 17 -25
64 -31 64 -7 0 8 -6 12 -13 9 -28 -10 -37 23 -38 140 -1 64 1 120 5 123 4 4
17 8 28 8 12 0 23 5 25 11 2 6 -4 11 -14 11 -38 0 -43 4 -43 33 0 29 -9 38
-23 23z"/>
<path d="M2792 3474 c-29 -20 -41 -45 -48 -96 -3 -24 -7 -45 -7 -48 -6 -28 18
-110 38 -134 14 -16 25 -26 25 -21 0 4 6 3 13 -3 21 -18 72 11 91 53 27 56 24
162 -5 217 -26 48 -66 61 -107 32z m84 -46 c16 -31 22 -121 11 -172 -9 -41
-39 -70 -66 -61 -47 15 -67 118 -41 215 17 65 67 74 96 18z"/>
<path d="M2980 3485 c-6 -36 -4 -299 2 -308 15 -25 23 10 24 113 0 120 12 157
51 166 25 7 32 34 8 34 -8 0 -24 -9 -34 -19 -19 -19 -20 -19 -35 2 -8 12 -16
18 -16 12z"/>
<path d="M3268 3480 c-1 -5 -2 -78 0 -161 2 -111 6 -149 15 -146 8 2 12 37 13
110 2 119 15 164 50 173 26 7 33 34 9 34 -8 0 -24 -9 -35 -20 -11 -11 -22 -20
-25 -20 -3 0 -5 9 -5 20 0 20 -16 28 -22 10z"/>
<path d="M3414 3482 c-7 -4 -10 -62 -10 -154 1 -133 6 -171 21 -156 7 6 9 307
3 313 -2 2 -8 1 -14 -3z"/>
<path d="M3509 3463 c0 -16 0 -93 0 -173 0 -157 -9 -206 -40 -215 -18 -6 -24
-29 -6 -25 65 15 71 36 72 245 1 93 -1 176 -3 183 -8 22 -22 13 -23 -15z"/>
<path d="M2759 2658 c-3 -76 0 -2610 4 -2614 4 -4 162 -7 322 -5 l41 1 -1 662
c0 365 1 672 4 682 4 16 37 -83 130 -389 10 -33 32 -103 49 -155 17 -52 43
-135 57 -185 15 -49 31 -99 35 -110 5 -11 17 -49 28 -85 45 -148 104 -336 109
-350 3 -8 8 -24 10 -35 2 -11 7 -23 12 -28 6 -6 193 -11 337 -8 l30 1 0 1315
0 1315 -183 0 c-139 0 -183 -3 -183 -12 -1 -7 -1 -353 -2 -768 0 -415 -4 -746
-8 -735 -5 11 -15 43 -23 70 -8 28 -40 129 -70 225 -72 226 -143 453 -207 660
-28 91 -65 208 -81 260 -17 52 -44 141 -61 198 l-31 102 -159 0 c-119 0 -158
-3 -159 -12z"/>
</g>
</svg>
