<svg width="17" height="16" viewBox="0 0 17 16" fill="none" xmlns="http://www.w3.org/2000/svg">
<path d="M8.47523 6.27738C7.11407 6.27738 5.96387 7.42759 5.96387 8.78875C5.96387 10.1499 7.11407 11.3001 8.47523 11.3001C9.83639 11.3001 10.9866 10.1499 10.9866 8.78875C10.9866 7.42759 9.83639 6.27738 8.47523 6.27738Z" fill="#F2A655"/>
<path d="M15.1727 2.92891H13.0079L10.7418 0.662818C10.6642 0.584931 10.5719 0.523161 10.4704 0.481066C10.3688 0.438971 10.2599 0.417382 10.15 0.417542H6.80146C6.69151 0.417382 6.58262 0.438971 6.48104 0.481066C6.37947 0.523161 6.28723 0.584931 6.20962 0.662818L3.94353 2.92891H1.77874C0.85539 2.92891 0.104492 3.6798 0.104492 4.60315V13.8115C0.104492 14.7348 0.85539 15.4857 1.77874 15.4857H15.1727C16.096 15.4857 16.8469 14.7348 16.8469 13.8115V4.60315C16.8469 3.6798 16.096 2.92891 15.1727 2.92891ZM8.47571 12.9744C6.20711 12.9744 4.2901 11.0574 4.2901 8.78876C4.2901 6.52016 6.20711 4.60315 8.47571 4.60315C10.7443 4.60315 12.6613 6.52016 12.6613 8.78876C12.6613 11.0574 10.7443 12.9744 8.47571 12.9744Z" fill="#F2A655"/>
</svg>
