<svg xmlns="http://www.w3.org/2000/svg" viewBox="0 0 130 200"><defs><clipPath id="clip-custom_1"><path d="M0 0h130v200H0z"/></clipPath><style>.cls-2{fill:#e06c41}</style></defs><g id="custom_1" data-name="custom – 1" clip-path="url(#clip-custom_1)"><g id="Group_1" data-name="Group 1"><g id="Group_1-2" data-name="Group 1" transform="translate(33.968)"><path id="Path_1" data-name="Path 1" class="cls-2" d="M587.366 132.682V57.691h-13.809V35.908h9.075v-8.654h-9.075v-18.6h13.02V0h-22.194v66.345h11.935l-6.51 33.015-6.508-33.022h-2.96V0h-11.049l-6.51 33.023L536.27 0h-10.85v66.345h7.694V19.5l7.694 46.849h3.946l7.694-46.849v121.822h8.581v57.691h9.171v-57.69h8.976v-8.653h-7.4l7.692-46.836v46.849zm-27.224-.013V85.833l7.691 46.836z" transform="translate(-521.181)"/><path id="Path_2" data-name="Path 2" class="cls-2" d="M1325.665 961.871h-13.809v-21.6h9.074v-8.581h-9.074v-18.448h13.02v-8.582h-22.194v64.815a12.9 12.9 0 00-10.161 5.3c-1.776 2.861-2.071 4.538-2.071 12.33v32.354c0 7.792.3 9.469 2.071 12.33a13.761 13.761 0 0021.9 0c1.776-2.861 2.072-4.439 2.072-12.33V987.11c0-7.792-.3-9.469-2.072-12.33a11.791 11.791 0 00-5.572-4.328h16.818zm-18.348 61.44c0 3.749-1.183 5.326-3.847 5.326-2.762 0-3.847-1.578-3.847-5.326v-39.949c0-3.749 1.184-5.327 3.847-5.327 2.762 0 3.847 1.578 3.847 5.327z" transform="translate(-1229.633 -837.218)"/><path id="Path_3" data-name="Path 3" class="cls-2" d="M487.144 1848.005l-12.132-38.766h-7.892v65.793h9.173v-34.525l10.85 34.525h9.173v-65.792h-9.173z" transform="translate(-467.12 -1676.019)"/></g><g id="Group_2" data-name="Group 2" transform="translate(0 75.936)"><path id="Path_4" data-name="Path 4" class="cls-2" d="M232.667 1038.573c-.081-1.694-.163-3.421-.114-4.708h-.081a65.183 65.183 0 01-.978 4.09l-1.6 5.9h-.359l-1.515-5.6c-.456-1.711-.8-3.064-1.043-4.383h-.065c.033 1.352-.033 2.981-.114 4.839l-.212 5.149h-.7l.57-10.982h.814l1.531 5.671c.407 1.483.684 2.477.945 3.731h.049c.244-1.271.489-2.2.88-3.731l1.483-5.671h.88l.6 10.982h-.717z" transform="translate(-209.464 -1032.87)"/><path id="Path_5" data-name="Path 5" class="cls-2" d="M350.077 1078.3c0 3.144 1.092 3.682 1.971 3.682a2.1 2.1 0 001.173-.309l.163.537a2.7 2.7 0 01-1.466.391c-1.711 0-2.558-1.613-2.558-3.975 0-2.477.9-4.074 2.33-4.074 1.548 0 1.971 1.907 1.971 3.291v.456zm2.835-.57c.033-1.923-.766-2.558-1.336-2.558-.913 0-1.4 1.3-1.483 2.558z" transform="translate(-323.955 -1071.519)"/><path id="Path_6" data-name="Path 6" class="cls-2" d="M425.165 1076.489c0-.961-.049-1.254-.065-1.808h.636l.033.994h.033a1.757 1.757 0 011.694-1.125 1.615 1.615 0 011.6 1.271h.033a2.478 2.478 0 01.75-.961 1.847 1.847 0 011.076-.31c.847 0 1.792.554 1.792 2.623v5.328h-.7v-5.084c0-1.108-.179-2.265-1.32-2.265-.619 0-1.173.554-1.369 1.467a4.3 4.3 0 00-.049.8v5.084h-.7v-5.279c0-1.043-.212-2.07-1.3-2.07-.636 0-1.254.57-1.4 1.63a5.261 5.261 0 00-.033.717v5h-.7z" transform="translate(-394.187 -1071.519)"/><path id="Path_7" data-name="Path 7" class="cls-2" d="M549.747 1078.3c0 3.144 1.092 3.682 1.971 3.682a2.1 2.1 0 001.173-.309l.163.537a2.7 2.7 0 01-1.466.391c-1.711 0-2.558-1.613-2.558-3.975 0-2.477.9-4.074 2.33-4.074 1.548 0 1.971 1.907 1.971 3.291v.456zm2.835-.57c.033-1.923-.766-2.558-1.336-2.558-.913 0-1.4 1.3-1.483 2.558z" transform="translate(-509.105 -1071.519)"/><path id="Path_8" data-name="Path 8" class="cls-2" d="M624.845 1076.489c0-.961-.049-1.254-.065-1.808h.636l.033.961h.033a1.839 1.839 0 011.727-1.092c.831 0 1.776.554 1.776 2.542v5.41h-.7v-5.132c0-1.108-.2-2.217-1.287-2.217-.636 0-1.254.554-1.417 1.63a4.569 4.569 0 00-.033.684v5.035h-.7v-6.012z" transform="translate(-579.347 -1071.519)"/><path id="Path_9" data-name="Path 9" class="cls-2" d="M696.158 1052.81v1.711h1.483v.6h-1.483v5.328c0 1.092.358 1.385.831 1.385a1.854 1.854 0 00.473-.049l.081.537a1.6 1.6 0 01-.7.114 1.234 1.234 0 01-1.043-.456 2.925 2.925 0 01-.342-1.793v-5.067h-.978v-.6h.978v-1.3z" transform="translate(-643.979 -1051.36)"/><path id="Path_10" data-name="Path 10" class="cls-2" d="M748.857 1078.591c0 2.884-1.157 4.04-2.363 4.04-1.108 0-2.264-1.156-2.264-4.04s1.157-4.041 2.379-4.041c1.107 0 2.248 1.157 2.248 4.041zm-3.895 0c0 1.27.244 3.421 1.6 3.421 1.32 0 1.564-2.151 1.564-3.421s-.244-3.421-1.6-3.421c-1.319-.001-1.564 2.15-1.564 3.421z" transform="translate(-690.111 -1071.519)"/><path id="Path_11" data-name="Path 11" class="cls-2" d="M.7 1308.63l.961 4.106c.2.831.407 1.727.521 2.575h.065c.13-.847.343-1.793.537-2.542l1.027-4.138h.554l.977 4.008c.212.864.407 1.727.57 2.673h.068c.114-.88.31-1.678.521-2.607l.913-4.073h.717l-1.939 7.821h-.537l-1.108-4.464a21.987 21.987 0 01-.456-2.3h-.033a27.33 27.33 0 01-.473 2.363l-1.092 4.4h-.586L0 1308.63z" transform="translate(0 -1288.577)"/><path id="Path_12" data-name="Path 12" class="cls-2" d="M123.407 1310.871c0 2.884-1.157 4.04-2.363 4.04-1.108 0-2.264-1.156-2.264-4.04s1.157-4.041 2.379-4.041c1.107 0 2.248 1.157 2.248 4.041zm-3.894 0c0 1.27.244 3.421 1.6 3.421 1.32 0 1.564-2.151 1.564-3.421s-.244-3.422-1.6-3.422c-1.32.001-1.564 2.151-1.564 3.422z" transform="translate(-110.143 -1286.908)"/><path id="Path_13" data-name="Path 13" class="cls-2" d="M200.5 1310.871c0 2.884-1.157 4.04-2.363 4.04-1.108 0-2.264-1.156-2.264-4.04s1.157-4.041 2.379-4.041c1.104 0 2.248 1.157 2.248 4.041zm-3.894 0c0 1.27.244 3.421 1.6 3.421 1.32 0 1.564-2.151 1.564-3.421s-.244-3.422-1.6-3.422c-1.323.001-1.57 2.151-1.57 3.422z" transform="translate(-181.627 -1286.908)"/><path id="Path_14" data-name="Path 14" class="cls-2" d="M277.265 1308.769c0-.586-.049-1.32-.065-1.808h.668l.033 1.271h.033a1.921 1.921 0 011.694-1.4h.147v.766h-.13c-1.01 0-1.6.994-1.662 1.955-.017.228-.017.44-.017.668v4.563h-.7v-6.012z" transform="translate(-257.042 -1286.908)"/><path id="Path_15" data-name="Path 15" class="cls-2" d="M319.8 1261.121v9.678c0 .391.049 1.3.065 1.6h-.6l-.065-1.043h-.065a1.771 1.771 0 01-1.646 1.173c-1.108 0-2.184-1.173-2.184-4.008 0-2.8 1.141-4.074 2.264-4.074a1.6 1.6 0 011.5 1.01h.033v-4.334h.7zm-.7 6.4c0-.179 0-.375-.016-.553-.065-1.027-.7-1.907-1.417-1.907-1.222 0-1.63 1.678-1.63 3.421 0 1.76.44 3.421 1.531 3.421.456 0 1.141-.245 1.5-1.744a2.879 2.879 0 00.033-.537v-2.1z" transform="translate(-292.372 -1244.522)"/><path id="Path_16" data-name="Path 16" class="cls-2" d="M391.775 1270.736v-7.218h-.945v-.6h.945v-.587a3.719 3.719 0 01.619-2.363 1.809 1.809 0 011.369-.635 1.574 1.574 0 01.814.2l-.2.57a1.6 1.6 0 00-.7-.147c-1.027 0-1.206 1.157-1.206 2.378v.587h1.483v.6h-1.483v7.218h-.7z" transform="translate(-362.409 -1242.862)"/><path id="Path_17" data-name="Path 17" class="cls-2" d="M437.487 1310.587c0 3.145 1.091 3.683 1.971 3.683a2.1 2.1 0 001.173-.309l.163.537a2.7 2.7 0 01-1.466.391c-1.711 0-2.558-1.613-2.558-3.976 0-2.477.9-4.074 2.33-4.074 1.548 0 1.971 1.907 1.971 3.291v.456zm2.835-.57c.033-1.923-.766-2.558-1.336-2.558-.913 0-1.4 1.3-1.483 2.558z" transform="translate(-405.009 -1286.917)"/><path id="Path_18" data-name="Path 18" class="cls-2" d="M505.84 1313.863a2.135 2.135 0 001.173.407 1.3 1.3 0 001.352-1.417 2.02 2.02 0 00-1.059-1.825c-.864-.62-1.58-1.206-1.58-2.216a1.913 1.913 0 011.907-1.971 2.1 2.1 0 011.271.423l-.309.57a1.575 1.575 0 00-1.01-.374 1.15 1.15 0 00-1.157 1.206c0 .636.212.994 1.01 1.58a3.012 3.012 0 011.646 2.411 2.035 2.035 0 01-2.1 2.233 2.29 2.29 0 01-1.4-.456z" transform="translate(-468.815 -1286.917)"/><path id="Path_19" data-name="Path 19" class="cls-2" d="M562.588 1285.1v1.711h1.483v.6h-1.483v5.328c0 1.091.358 1.384.831 1.384a1.86 1.86 0 00.473-.049l.081.537a1.6 1.6 0 01-.7.114 1.234 1.234 0 01-1.043-.456 2.924 2.924 0 01-.343-1.792v-5.067h-.978v-.6h.978v-1.3z" transform="translate(-520.121 -1266.758)"/><path id="Path_20" data-name="Path 20" class="cls-2" d="M616.879 1273.383c0 .375-.179.6-.554.6-.293 0-.5-.228-.5-.6a.538.538 0 01.521-.6c.354-.003.533.241.533.6zm-.88 9.825v-7.821h.7v7.821z" transform="translate(-571.039 -1255.334)"/><path id="Path_21" data-name="Path 21" class="cls-2" d="M643.65 1308.63l1.238 4.953c.114.423.26 1.124.358 1.727h.049c.082-.554.228-1.222.343-1.727l1.19-4.953h.717l-2.02 7.821h-.587l-1.987-7.821z" transform="translate(-596.196 -1288.577)"/><path id="Path_22" data-name="Path 22" class="cls-2" d="M716.753 1313.031a15.11 15.11 0 00.065 1.76h-.651l-.065-.864h-.049a1.607 1.607 0 01-1.466.994c-.961 0-1.727-.814-1.727-2.151 0-1.89 1.417-2.77 3.194-2.786v-.293c0-1.336-.212-2.232-1.353-2.232a1.932 1.932 0 00-1.108.375l-.2-.537a2.472 2.472 0 011.45-.456c1.059 0 1.907.62 1.907 2.493v3.7zm-.7-2.444a2.113 2.113 0 00-2.46 2.134c0 1.173.57 1.58 1.092 1.58.668 0 1.19-.537 1.336-1.483a2.787 2.787 0 00.033-.506z" transform="translate(-661.022 -1286.917)"/><path id="Path_23" data-name="Path 23" class="cls-2" d="M790.62 1261.13h.7v11.275h-.7z" transform="translate(-733.127 -1244.531)"/><path id="Path_24" data-name="Path 24" class="cls-2" d="M388.58 1497.44h.7v5.393h.033c.293-.456.537-.88.766-1.27l2.411-4.122h.8l-2.835 4.628 2.933 6.354h-.766l-2.64-5.751-.7 1.14v4.611h-.7z" transform="translate(-360.323 -1463.657)"/><path id="Path_25" data-name="Path 25" class="cls-2" d="M464.7 1543.161c0 2.884-1.157 4.04-2.363 4.04-1.108 0-2.264-1.156-2.264-4.04s1.157-4.041 2.379-4.041c1.105 0 2.248 1.157 2.248 4.041zm-3.894 0c0 1.27.244 3.421 1.6 3.421 1.32 0 1.564-2.151 1.564-3.421s-.244-3.421-1.6-3.421c-1.323 0-1.57 2.15-1.57 3.421z" transform="translate(-426.615 -1502.306)"/><path id="Path_26" data-name="Path 26" class="cls-2" d="M541.475 1541.049c0-.586-.049-1.32-.065-1.808h.668l.033 1.27h.033a1.921 1.921 0 011.694-1.4h.147v.766h-.13c-1.01 0-1.6.994-1.662 1.955-.017.228-.017.44-.017.668v4.562h-.7v-6.012z" transform="translate(-502.04 -1502.297)"/><path id="Path_27" data-name="Path 27" class="cls-2" d="M587.018 1517.39v1.711h1.482v.6h-1.483v5.328c0 1.092.359 1.385.831 1.385a1.86 1.86 0 00.473-.049l.081.537a1.6 1.6 0 01-.7.114 1.234 1.234 0 01-1.043-.456 2.924 2.924 0 01-.343-1.792v-5.068h-.978v-.6h.978v-1.3z" transform="translate(-542.775 -1482.157)"/><path id="Path_28" data-name="Path 28" class="cls-2" d="M641.646 1541.049c0-.586-.049-1.32-.066-1.808h.668l.033 1.27h.033a1.921 1.921 0 011.694-1.4h.147v.766h-.13c-1.01 0-1.6.994-1.662 1.955-.017.228-.017.44-.017.668v4.562h-.7v-6.012z" transform="translate(-594.925 -1502.297)"/><path id="Path_29" data-name="Path 29" class="cls-2" d="M687.459 1505.663c0 .375-.179.6-.554.6-.293 0-.505-.228-.505-.6a.539.539 0 01.521-.6c.36-.003.538.237.538.6zm-.88 9.826v-7.821h.7v7.821z" transform="translate(-636.486 -1470.723)"/><path id="Path_30" data-name="Path 30" class="cls-2" d="M704.56 1518.176a1.769 1.769 0 001.075-.717 5.428 5.428 0 00.391-2.753v-7.038h.7v7.365c0 1.58-.146 2.313-.636 2.933a2.346 2.346 0 01-1.369.782zm2.347-12.513c0 .375-.179.6-.537.6a.53.53 0 01-.521-.6.541.541 0 01.537-.6c.341-.003.521.237.521.6z" transform="translate(-653.326 -1470.723)"/><path id="Path_31" data-name="Path 31" class="cls-2" d="M758.141 1500.619h.033c.146-.228.293-.506.44-.75l1.89-3.014h.766l-2.167 3.291 2.411 4.53h-.8l-2.069-3.992-.505.766v3.226h-.7V1493.4h.7v7.219z" transform="translate(-702.36 -1459.911)"/></g></g></g></svg>