<svg xmlns="http://www.w3.org/2000/svg" viewBox="0 0 226.79 284.16"><path d="M19.54 267.13a10.49 10.49 0 00-1.63-1.26v-.15a7.32 7.32 0 001.43-1.1 8.29 8.29 0 001.33-1.71l8.28-13.5h-9.91l-7.73 13.3H8.79c0-.19.09-.37.12-.57a20.54 20.54 0 00.32-3.62v-9.07H.02v34h9.21v-11.32a14.64 14.64 0 00-.39-3.18h2.47l8 14.59H29.5l-8.48-14.39a7.14 7.14 0 00-1.48-2.02zm37.96-14.7a10 10 0 00-4.73-2.84 26.54 26.54 0 00-7.15-.83 26.64 26.64 0 00-7.13.83 10 10 0 00-4.75 2.84 11.79 11.79 0 00-2.62 5.4 48 48 0 000 17.23 11.82 11.82 0 002.62 5.42 10 10 0 004.75 2.84 26.64 26.64 0 007.13.83 26.54 26.54 0 007.15-.83 10 10 0 004.73-2.84 11.71 11.71 0 002.61-5.42 47.37 47.37 0 000-17.23 11.68 11.68 0 00-2.61-5.4zm-6.83 20.58a5.09 5.09 0 01-1.67 3.21 6.93 6.93 0 01-6.76 0 5.2 5.2 0 01-1.7-3.21 44.09 44.09 0 010-13.11 5.2 5.2 0 011.7-3.21 6.93 6.93 0 016.76 0 5.09 5.09 0 011.67 3.21 45.95 45.95 0 010 13.11zm40.03-3.08a5.69 5.69 0 00-2-1.6 6.16 6.16 0 00-2-.59v-.3a8.29 8.29 0 004.05-1.4 6 6 0 002.09-2.89 12 12 0 00.62-3.94 11.44 11.44 0 00-1.41-6.19 7.67 7.67 0 00-4.41-3.13 26.91 26.91 0 00-7.79-.94h-5.5c-1.5 0-2.93.06-4.21.12s-2.65.18-4.09.35v34h9.07V270.6h4.29a3.84 3.84 0 012.17.51 3.39 3.39 0 011.08 2.1l2.42 10.2h9.71l-2.81-10.5a6.84 6.84 0 00-1.28-2.98zm-6.92-7.59a2.26 2.26 0 01-1.36 1.26 8.45 8.45 0 01-2.73.34h-4.54v-8.27h4.54a8.45 8.45 0 012.73.34 2.26 2.26 0 011.36 1.24 6.57 6.57 0 01.39 2.56 6.66 6.66 0 01-.39 2.53zm22.52-12.89h-9.86v7.05h9.86v26.97h9.27V256.5h9.81v-7.05H106.3zm47.61 20.48a5.71 5.71 0 00-2-1.6 6.11 6.11 0 00-2-.59v-.3a8.25 8.25 0 004-1.4 6 6 0 002.09-2.89 11.72 11.72 0 00.62-3.94 11.53 11.53 0 00-1.4-6.19 7.72 7.72 0 00-4.42-3.13 26.91 26.91 0 00-7.79-.94h-5.49c-1.49 0-2.94.06-4.22.12s-2.64.18-4.09.35v34h9.1V270.6h4.29a3.82 3.82 0 012.17.51 3.39 3.39 0 011.08 2.1l2.42 10.2h9.71l-2.81-10.5a7 7 0 00-1.26-2.98zm-6.93-7.59a2.26 2.26 0 01-1.36 1.26 8.45 8.45 0 01-2.73.34h-4.58v-8.27h4.54a8.45 8.45 0 012.73.34 2.26 2.26 0 011.36 1.24 6.57 6.57 0 01.39 2.56 6.66 6.66 0 01-.35 2.53zm15.33-12.89h9.17v34.02h-9.17zm19.67 25.44c0 1.47-1 2.21-3.15 2.21h-2.32l-1 5.87a7.42 7.42 0 002 .64 25.29 25.29 0 002.71.37c.94.08 1.73.12 2.39.12a9.56 9.56 0 006.21-1.84 6.41 6.41 0 002.27-5.25v-27.56h-9.17zm34.56 8.57h10.25l-8.48-14.39a7.35 7.35 0 00-1.48-1.9 10.49 10.49 0 00-1.63-1.26v-.15a7.32 7.32 0 001.43-1.1 8.29 8.29 0 001.33-1.71l8.28-13.5h-9.93l-7.78 13.26h-2.47c0-.19.09-.37.12-.57a20.54 20.54 0 00.32-3.62v-9.07h-9.19v34h9.22v-11.32a14.64 14.64 0 00-.39-3.18h2.45zM113.39 22.67a90.71 90.71 0 11-90.71 90.71 90.81 90.81 0 0190.71-90.71m0-22.67a113.39 113.39 0 10113.38 113.38A113.39 113.39 0 00113.39 0z" fill="#fff"/><path fill="#fff" d="M73.7 102.05h79.37v22.61H73.7zm63.37-8.99l-23.62-23.59-23.63 23.59-16.06-16.03 39.69-39.63 39.68 39.63-16.06 16.03zm-23.68 88.35a39.73 39.73 0 01-39.69-39.68h22.61a17.08 17.08 0 1034.16 0h22.6a39.72 39.72 0 01-39.68 39.68z"/></svg>